<svg xmlns="http://www.w3.org/2000/svg" fill="none" viewBox="0 0 306 94" className="w-44 lg:w-64"><path fill="#EDA651" d="M270.116 47.769q-1.081.075-1.747-.56-.665-.637-.734-1.626-.055-.803.717-3.06a89 89 0 0 1 1.83-4.909 341 341 0 0 1 2.38-5.909q1.034-2.524 1.533-3.832.524-1.372 1.406-2.085t1.777-.776q.741-.051 1.367.463.624.484.697 1.535.028.401-.032.871t-.271 1.012q.873-1.271 2.678-2.546a20.7 20.7 0 0 1 3.941-2.231q2.139-.926 3.993-1.055 1.637-.115 2.774.613 1.166.694 1.298 2.578.112 1.607-.467 3.54a26 26 0 0 1-1.448 3.702 58 58 0 0 1-1.752 3.351 35 35 0 0 0-1.233 2.352 1.77 1.77 0 0 0-.321 1.171q.043.618.692.573.216-.015.492-.066.273-.081.656-.387a30 30 0 0 0 4.449-2.515 43 43 0 0 0 4.039-3.045q1.847-1.557 2.945-2.72.466-.436.93-.469 1.112-.078 1.211 1.343.067.959-.469 2.175-.504 1.215-1.731 2.325a839 839 0 0 1-4.022 3.292 34.4 34.4 0 0 1-3.966 2.76q-2.117 1.266-5.082 2.343-1.542.603-2.653.682-3.15.22-3.393-3.24l-.028-.401q.016-.219.03-.468-.005-1.396.763-3.281a52 52 0 0 1 1.692-3.782 90 90 0 0 0 1.657-3.375q.728-1.572.676-2.313-.078-1.111-1.128-1.038-1.945.135-3.657 1.404-1.681 1.266-3.133 3.137a35 35 0 0 0-2.587 3.843 124 124 0 0 0-2.046 3.589 23 23 0 0 0-1.198 2.846q-.539 1.62-1.352 2.857-.784 1.235-2.173 1.332"></path><path fill="#EDA651" d="M254.208 48.881q-2.471.173-4.316-.909a8.1 8.1 0 0 1-2.882-3.026 10.5 10.5 0 0 1-1.196-4.231q-.14-2.008.83-4.559.999-2.584 3.001-5.021 2.003-2.437 4.895-4.13 2.922-1.724 6.474-1.973 2.564-.18 3.917.968 1.353 1.146 1.506 3.34.09 1.297-.49 2.766-.58 1.468-2.146 3.036-1.565 1.6-4.268 3.34-2.673 1.71-6.767 3.547.474 1.891 3.223 1.7 2.131-.15 4.542-1.187a45 45 0 0 0 4.615-2.372q2.208-1.272 3.776-2.375t1.868-1.248q.265-.205.479-.25a4 4 0 0 1 .43-.062q.741-.051 1.061.516.347.534.373.905a4.5 4.5 0 0 1-.014.684q-.036.375-.403.897-.373.43-2.224 1.925a54 54 0 0 1-3.987 2.917q-2.612 1.704-5.864 3.142t-6.433 1.66m-2.153-10.372a44 44 0 0 0 3.906-2.725q2.001-1.568 3.037-2.292 1.387-1.029 1.801-1.771.471-.81.434-1.334-.032-.465-.361-.72a1.17 1.17 0 0 0-.672-.295l-.28-.011-.278.02q-1.7.119-3.082 1.208a9 9 0 0 0-2.241 2.578q-.944 1.587-1.5 2.96-.525 1.372-.764 2.382"></path><path fill="#EDA651" d="M211.389 66.867q-1.113.078-1.855-.336-.772-.38-.86-1.647-.085-1.204.469-2.609.553-1.404.946-2.456a2150 2150 0 0 1 3.877-8.466 196 196 0 0 0 3.693-8.453q1.727-4.155 2.679-7.854.181-.51.516-1.495.333-1.017.846-2.108a8.7 8.7 0 0 1 1.172-1.882q.658-.791 1.462-.847 2.347-.165 2.479 1.72.024.34-.117 1.436-.111 1.063-.3 1.48a38 38 0 0 1 3.146-2.952 19.3 19.3 0 0 1 3.644-2.49q1.946-1.035 3.891-1.172a7.66 7.66 0 0 1 3.869.723q1.859.832 1.992 2.747.127 1.823-1.29 4.188a36 36 0 0 1-3.25 4.573 87 87 0 0 1-2.21 2.576q-1.125 1.227-1.9 2.12-.745.89-.757 1.17.059.832 1.263.75 1.236-.087 4.911-3.014 3.674-2.957 10.376-8.765.918-.623 1.475-.662.68-.047 1.056.454.374.471.426 1.212.055.803-.318 1.667a3.5 3.5 0 0 1-1.139 1.477 226 226 0 0 0-5.584 4.922q-2.48 2.253-4.637 3.832-2.213 1.645-4.349 2.601-2.137.957-4.639 1.132-2.349.165-3.706-.61-1.327-.777-1.433-2.29l-.017-.247.014-.25q.09-1.372 1.591-3.432a64 64 0 0 1 3.368-4.209 109 109 0 0 0 3.236-3.889q1.455-1.84 1.39-2.767-.057-.803-1.385-.71-1.823.127-3.75 1.41-1.897 1.282-3.594 3.201a29.6 29.6 0 0 0-3.075 3.971q-1.316 2.047-2.157 3.783l-1.826 4.07q-.617 1.377-1.073 2.402a52 52 0 0 1-.587 1.376q-.187.417-.711 1.82-.492 1.4-1.223 3.375-.732 1.944-1.256 3.347-.49 1.43-.587 1.81a8.3 8.3 0 0 1-1.476 2.866q-.996 1.28-2.726 1.401M194.989 52.96a18 18 0 0 1-5.18-.383 11.7 11.7 0 0 1-4.625-2.222q-2.098-1.59-3.501-4.349-1.375-2.79-1.666-6.96-.465-6.642 2.013-12.495 2.477-5.854 6.675-10.183 4.196-4.36 9.139-6.909 4.975-2.552 9.485-2.867 3.644-.255 6.749.645t5.271 3.015q2.196 2.113 2.996 5.564l.051.276.019.278q.085 1.205-.581 1.903-.636.666-1.439.721-.897.063-1.735-.84-.84-.904-1.673-2.615-1.294-2.082-3.526-2.92-2.23-.836-4.949-.647-3.522.246-7.405 2.412-3.855 2.13-7.113 5.712-3.256 3.58-5.172 8.152a20.56 20.56 0 0 0-1.543 9.452q.192 2.748 1.004 4.585.81 1.837 2.005 2.933t2.621 1.524q1.427.428 2.847.329 4.263-.3 7.665-3.578 3.432-3.313 5.232-9.089 1.83-5.776 1.291-13.5l-.083-1.173-.113-1.172q-.108-1.545.399-2.293.504-.78 1.214-.83 1.606-.112 2.521.972.91 1.053 1.346 2.824.465 1.768.603 3.744.43 6.147-1.147 11.566-1.546 5.415-4.557 9.413-3.007 4.029-6.972 6.385-3.934 2.325-8.166 2.62M154.705 73.47q-1.236.087-2.066-.693-.829-.75-.926-2.14a11.2 11.2 0 0 1 .127-2.616q.252-1.29.978-2.893.695-1.6 1.889-3.608 1.227-1.98 3.087-4.686l5.303-12.942q-4.249 5.822-7.814 8.99-3.566 3.165-6.84 3.395-1.05.074-1.826-.369-.774-.411-.852-1.523-.108-1.544.497-3.543a33 33 0 0 1 1.101-2.901q.618-1.379 1.258-2.882.663-1.598 1.526-3.924.861-2.327 1.876-5.564.534-1.248 1.486-1.842.95-.626 1.876-.69.957-.066 1.639.351.71.385.761 1.127.029.4-.078.657l-4.83 12.164q-.368.957-.333 1.451.033.463.403.438.34-.025.841-.4.502-.377.935-.842l11.88-13.433q1.458-1.344 2.273-1.68a5.2 5.2 0 0 1 1.618-.393q.648-.045.961.43.31.444.347.969.028.401-.098.814L165.793 49.6a29 29 0 0 1 3.247-2.4 60 60 0 0 1 3.601-2.207 49 49 0 0 1 2.994-1.575q1.23-.615 1.384-.625.773-.054 1.4.492.628.546.691 1.441.056.804-.499 1.743-.524.936-1.979 1.876a186 186 0 0 1-3.567 2.267q-1.665 1.048-2.793 1.779l-2.107 1.389a28 28 0 0 0-2.622 2.014 38 38 0 0 0-2.353 2.307 133 133 0 0 1-2.125 6.45q-.984 2.8-1.225 3.344-2.14 5.365-5.135 5.574"></path><path fill="#EDA651" d="M135.531 57.18q-2.44.17-3.482-.967-1.041-1.138-1.165-2.899-.108-1.544.301-3.249.409-1.704.964-3.078l3.096-7.666-1.328.093q-1.73.12-2.418-.39-.687-.51-.737-1.221-.05-.71.691-1.663.738-.983 2.128-1.08l3.336-.233 5.613-13.398q.535-1.217 1.397-1.774a3.84 3.84 0 0 1 1.878-.66 3.1 3.1 0 0 1 1.734.376q.806.441.886 1.584.042.586-.194 1.224-.205.604-.582 1.437-.43.96-1.153 2.595a249 249 0 0 1-1.808 3.882l-1.933 4.326 10.07-.704q1.483-.105 2.437.233.984.303 1.077 1.632.048.68-.401 1.363-.45.683-2.078.92l-12.85.9-1.86 4.475-1.64 4.057q-.32.766-.621 1.782-.272.981-.221 1.722.065.927.93.866.988-.069 2.598-1.02a37 37 0 0 0 3.379-2.284q1.8-1.337 3.439-2.755a82 82 0 0 0 3.002-2.786q.502-.377.903-.405.68-.047 1.071.67.392.718.187 1.787-.173 1.068-1.311 2.11a80 80 0 0 1-3.835 3.745 48 48 0 0 1-3.846 3.155 24 24 0 0 1-3.877 2.258q-1.923.91-3.777 1.04"></path><path fill="#EDA651" d="M127.461 32.322q-1.915.135-2.728-.399a2.25 2.25 0 0 1-.978-1.545q-.101-1.452.852-2.916.982-1.496 3.082-1.643 1.791-.125 2.552.535.758.63.831 1.68.082 1.175-.745 2.66-.796 1.485-2.866 1.628m-5.799 25.828q-2.502.174-4.042-.99-1.512-1.198-1.702-3.916a10.8 10.8 0 0 1 .418-3.786 35 35 0 0 1 1.298-3.629q.749-1.728 1.157-2.999a29 29 0 0 1 .438-1.272q.343-.862.715-1.757l.899-2.236q.465-.9 1.119-1.32.654-.417 1.364-.467 1.173-.083 2.062.631.917.68.998 1.855a5 5 0 0 1-.053.563 1.5 1.5 0 0 1-.147.569 36 36 0 0 0-1.012 2.398q-.42 1.086-.87 2.203a173 173 0 0 1-.928 2.269 27 27 0 0 0-.959 2.705q-.404 1.332-.332 2.351.058.834.479 1.084.45.218 1.222.163 1.236-.086 2.664-.962a15.2 15.2 0 0 0 2.739-2.116 37 37 0 0 0 2.464-2.5q1.12-1.29 1.655-2.072.546-.627 1.195-.673.556-.039.93.432.405.468.459 1.24.05.71-.264 1.54-.284.826-1.038 1.593a65 65 0 0 1-3.986 4.252q-2.094 2.01-4.36 3.347-2.234 1.335-4.582 1.5"></path><path fill="#EDA651" d="M90.464 60.331q-1.544.108-1.655-1.467a4.7 4.7 0 0 1 .035-.84q.087-.535.383-1.176.456-1.025.981-2.396.524-1.403 1.1-2.902.633-1.628 1.447-3.733a400 400 0 0 1 1.984-4.919 3.5 3.5 0 0 1-.804-.844q-.316-.537-.373-1.34-.102-1.452.963-2.209 1.093-.79 2.669-.9a8.3 8.3 0 0 1 3.035.346q1.519.421 1.595 1.503.008.123-.175.602-.156.445-.145.6.005.06.035.06l.031-.003.06-.035a28 28 0 0 1 4.743-2.753q2.557-1.171 4.255-1.29 1.39-.099 2.179.53.817.594.928 2.17.024.34.021.743a6 6 0 0 1-.068.812q-.136 1.157-1.522 3.086a52 52 0 0 1-2.966 3.746l-1.724 1.983a39 39 0 0 0-1.748 2.078q-.743.921-.721 1.23.03.432.339.411a107 107 0 0 0 4.871-2.7 221 221 0 0 0 5.237-3.222q2.527-1.605 4.128-2.678.623-.416 1.086-.449 1.297-.09 1.392 1.269.05.71-.503 1.68-.525.937-1.876 2.025-1.27.927-3.483 2.571a121 121 0 0 1-4.349 3.067 46 46 0 0 1-4.111 2.46q-1.945 1.036-3.304 1.131-2.132.15-3.284-.794-1.122-.947-1.234-2.553a1.4 1.4 0 0 1 .005-.372q.202-2.001 1.153-3.93a34 34 0 0 1 2.017-3.556 63 63 0 0 0 1.873-2.955q.837-1.362.772-2.289-.033-.463-.373-.44-.494.035-1.757.62-1.265.554-2.477 1.415-1.213.861-1.615 1.758-.542 1.125-1.364 3.137-.793 1.98-1.579 4.053-.756 2.07-1.28 3.442-.561 1.746-2.06 2.937-1.47 1.19-2.767 1.28"></path><path fill="#EDA651" d="M66.587 62.001q-1.05.074-2.544-.412-1.493-.484-2.7-1.767-1.176-1.283-1.336-3.569-.133-1.916.53-4.848.665-2.934 2.324-5.843a16.2 16.2 0 0 1 4.395-5.057q2.772-2.086 6.571-2.353 1.359-.095 2.403.174 1.043.269 1.781.62.42.219.778.474.388.22.719.508l1.044-.6q.449-.25.932-.438.512-.222.883-.248 1.174-.083 1.96.514.788.597.84 1.37.018.246-.006.341-.156.88-.637 2.435-.45 1.552-.97 3.451a48 48 0 0 0-.87 3.538q-.315 1.698-.24 2.779.065.927.417 1.523.35.566 1.091.513.897-.062 2.339-1.187a34 34 0 0 0 2.947-2.69q.81-.832 1.677-1.762.864-.96 1.752-2.016.465-.436.93-.469.618-.043 1.062.547.473.555.525 1.298.06.864-.485 1.493-1.156 1.23-2.362 2.617-1.208 1.388-3.36 3.432a29 29 0 0 1-4 3.167q-2.082 1.325-3.81 1.445-2.163.152-3.268-1.447a7.1 7.1 0 0 1-1.241-3.545q-.097-1.39.228-2.5a39 39 0 0 1-2.75 3.732 19.2 19.2 0 0 1-3.525 3.288q-1.924 1.345-4.025 1.492m2.09-5.61q.99-.068 2.383-1.438a22 22 0 0 0 2.696-3.169q1.415-1.961 2.205-3.538.79-1.575.753-2.1-.081-1.175-1.488-1.76-1.41-.615-2.49-.539-1.915.134-3.559 1.49-1.612 1.355-2.558 3.377-.945 1.99-.802 4.06.084 1.205.608 2.472.554 1.265 2.252 1.146"></path><path fill="#EDA651" d="M32.268 64.4q-1.08.076-1.713-.531-.63-.577-.697-1.534-.09-1.298.81-3.503a304 304 0 0 1 1.987-4.888q1.113-2.715 2.178-5.243a208 208 0 0 0 1.785-4.222l8.791-20.76q.314-.828 1.353-1.522 1.035-.725 2.117-.8 1.359-.095 1.92.394.561.457.612 1.198.048.68-.238 1.476-.288.765-.675 1.444a176 176 0 0 0-4.383 9.68 145 145 0 0 1-4.584 9.913q1.094-1.225 2.374-2.463a13.5 13.5 0 0 1 2.92-2.191q1.642-.922 3.835-1.075 2.04-.144 3.547.559 1.508.7 1.655 2.802.138 1.976-.612 3.674a19 19 0 0 1-1.823 3.232 37 37 0 0 0-1.926 3.083 7.36 7.36 0 0 0-.943 3.387l.009.124-.023.126q.044.618.456.744.443.124 1.092.079 1.267-.09 2.67-.87a22 22 0 0 0 2.845-1.937q1.38-1.12 2.54-2.289 1.19-1.17 1.912-1.965.49-.53 1.139-.576.556-.039.957.368.429.373.48 1.084.045.648-.36 1.515-.374.864-1.397 1.774a72 72 0 0 1-4.348 3.967q-2.226 1.893-4.56 3.143-2.303 1.248-4.62 1.41-2.193.153-3.59-.743-1.4-.926-1.551-3.088-.15-2.132.672-4.145a27 27 0 0 1 1.94-3.767q1.12-1.755 1.773-3.073.333-.551.489-.996.183-.48.147-1.004-.075-1.05-1.093-.979-2.41.168-4.25 1.818-1.81 1.617-3.233 3.92a95 95 0 0 0-2.548 4.4q-.55 1-1.133 2.438-.583 1.437-1.315 2.948-.678 1.413-1.54 2.404-.86.992-1.85 1.06"></path><path fill="#EDA651" d="M13.914 65.59q-5.745.403-8.43-2.048-2.687-2.451-2.972-6.528-.236-3.367.682-7.125.945-3.79 2.729-7.578a57 57 0 0 1 4.203-7.371 56 56 0 0 1 5.13-6.536q2.709-2.983 5.452-5.037 2.567-1.917 5.216-3.097 2.649-1.178 5.274-1.362 2.626-.183 4.597.92 2.001 1.103 2.217 4.191.09 1.267-.364 3.223a18.6 18.6 0 0 1-1.343 3.88q-.946 2.022-2.368 3.425-1.394 1.37-3.124 1.491-.618.044-1.687-.161-1.07-.204-1.148-1.317-.025-.371.125-.877.182-.51.662-1.195.684-.855 1.437-2.087.75-1.264 1.248-2.57.53-1.311.462-2.268-.138-1.977-1.992-1.847-1.328.093-2.935 1.074-1.608.982-3.325 2.623-1.747 1.643-3.743 4.172a64 64 0 0 0-3.867 5.517 60 60 0 0 0-3.42 6.137q-1.518 3.147-2.363 6.156-.817 2.974-.645 5.415.157 2.255 1.457 3.53 1.299 1.275 4.08 1.08 1.853-.13 3.95-1.208a31 31 0 0 0 4.284-2.658 88 88 0 0 0 4.208-3.305q2.055-1.695 3.757-3.088 1.734-1.393 2.962-2.038.114-.132.362-.15.463-.032.7.696.215.855.276 1.72.036.524-.064 1.307-.072.75-.744 1.79-1.839 2.55-4.41 4.841a41 41 0 0 1-5.456 4.106q-2.886 1.785-5.758 2.886-2.84 1.1-5.312 1.272"></path></svg>