<svg xmlns="http://www.w3.org/2000/svg" fill="none" viewBox="0 0 120 18" class="w-32 lg:w-44"><g fill="currentColor" clip-path="url(#premier-logo_svg__a)"><path d="M5.555 17.571c3.068 0 5.555-2.455 5.555-5.483S8.623 6.605 5.555 6.605 0 9.06 0 12.088c0 3.029 2.487 5.483 5.555 5.483M40.879 12.088c0-3.028-2.487-5.483-5.555-5.483q-.438 0-.857.065C33.439 3.068 30.086.43 26.108.43c-3.697 0-6.853 2.28-8.106 5.494L12.219 17.57h23.327v-.005c2.965-.114 5.333-2.523 5.333-5.478"></path></g><path fill="currentColor" fill-rule="evenodd" d="M47.472 10.072V1.09h5.453c.898 0 2.695.539 2.695 2.695S53.823 6.52 52.925 6.54H48.68v3.531zm1.209-7.93v3.407h4.244c.505-.061 1.517-.501 1.517-1.765s-1.012-1.621-1.517-1.642zM58.655 10.072V1.09h5.452c.899 0 2.695.539 2.695 2.695 0 1.728-1.154 2.444-2.075 2.67a3 3 0 0 1-.62.087h-4.243v3.531zm1.209-7.93v3.407h4.243c.506-.061 1.518-.501 1.518-1.765s-1.012-1.621-1.518-1.642z" clip-rule="evenodd"></path><path fill="currentColor" d="M64.727 6.454a3 3 0 0 1-.62.087h-.743l2.54 3.531h1.456z"></path><path fill="currentColor" fill-rule="evenodd" d="M110.636 10.072V1.09h5.452c.898 0 2.695.539 2.695 2.695 0 1.728-1.155 2.444-2.076 2.67a3 3 0 0 1-.619.087h-4.244v3.531zm1.208-7.93v3.407h4.244c.506-.061 1.518-.501 1.518-1.765s-1.012-1.621-1.518-1.642z" clip-rule="evenodd"></path><path fill="currentColor" d="M116.707 6.454a3 3 0 0 1-.619.087h-.744l2.541 3.531h1.456zM70.272 10.041V1.09h7.775V2.11H71.45v2.912h5.762v1.022h-5.762V9.02h6.598v1.022zM99.794 10.041V1.09h7.775V2.11h-6.598v2.912h5.762v1.022h-5.762V9.02h6.598v1.022zM95.023 1.027H96.2v8.983h-1.177zM82.167 10.041h-1.115V1.09h1.828l3.345 7.403 3.439-7.403h1.766v8.952h-1.178V2.576l-3.5 7.465H85.73l-3.563-7.465zM79.97 16.64v-2.85h.371v2.85zM70.8 16.701q-.636 0-1-.325-.363-.324-.363-.95V13.79h.399v1.62q0 .48.234.703c.16.148.446.222.735.222.291 0 .577-.074.734-.222q.24-.222.24-.703v-1.62h.384v1.636q0 .626-.364.95-.36.325-.999.325M63.498 16.646v-2.501h-1.124v-.355h2.648v.355H63.9v2.5zM77.561 16.646v-2.501h-1.123v-.355h2.648v.355h-1.123v2.5zM102.343 16.646v-2.501h-1.123v-.355h2.648v.355h-1.123v2.5zM60.354 16.64q-.378 0-.721-.098a1.6 1.6 0 0 1-.543-.26l.175-.318q.189.143.48.236.293.094.608.094.288 0 .467-.057a.57.57 0 0 0 .264-.155.35.35 0 0 0 .085-.227.29.29 0 0 0-.113-.236.8.8 0 0 0-.288-.143 3 3 0 0 0-.386-.097 9 9 0 0 1-.429-.094 2.3 2.3 0 0 1-.391-.142.8.8 0 0 1-.283-.228.6.6 0 0 1-.108-.374q0-.219.132-.403a.9.9 0 0 1 .414-.297q.284-.113.717-.113.286 0 .57.065.282.064.49.187l-.155.325a1.6 1.6 0 0 0-.448-.175 2 2 0 0 0-.457-.057q-.279 0-.457.061a.6.6 0 0 0-.264.163.36.36 0 0 0-.08.228q0 .15.108.24.113.09.287.142.18.053.392.098.21.04.424.093.217.053.39.138a.8.8 0 0 1 .288.228.6.6 0 0 1 .109.366.67.67 0 0 1-.137.403.95.95 0 0 1-.424.297q-.283.11-.717.11M91.827 16.64q-.377 0-.721-.098a1.6 1.6 0 0 1-.542-.26l.174-.318q.189.143.48.236.293.094.609.094.288 0 .466-.057a.57.57 0 0 0 .264-.155.35.35 0 0 0 .085-.227.29.29 0 0 0-.113-.236.8.8 0 0 0-.287-.143 3 3 0 0 0-.387-.097 9 9 0 0 1-.429-.094 2.3 2.3 0 0 1-.39-.142.8.8 0 0 1-.284-.228.6.6 0 0 1-.108-.374q0-.219.132-.403a.9.9 0 0 1 .415-.297q.282-.113.716-.113.288 0 .57.065.283.064.49.187l-.155.325a1.6 1.6 0 0 0-.448-.175 2 2 0 0 0-.457-.057q-.278 0-.457.061a.6.6 0 0 0-.264.163.36.36 0 0 0-.08.228q0 .15.108.24.113.09.288.142.18.053.39.098.213.04.425.093.217.053.391.138a.8.8 0 0 1 .288.228.6.6 0 0 1 .108.366.67.67 0 0 1-.137.403.95.95 0 0 1-.424.297q-.282.11-.716.11M55.497 16.578v-2.85h.355l2 2.34h-.185v-2.34h.432v2.85h-.354l-2.001-2.341h.185v2.34zM85.484 16.578v-2.85h.354l2.001 2.34h-.186v-2.34h.433v2.85h-.355l-2.001-2.341h.186v2.34zM52.93 16.64a1.8 1.8 0 0 1-.633-.11 1.44 1.44 0 0 1-.832-.769 1.4 1.4 0 0 1-.119-.578 1.4 1.4 0 0 1 .45-1.037q.213-.198.501-.309.29-.11.633-.11.34 0 .624.11.29.105.502.305.217.195.33.46.12.264.12.582a1.4 1.4 0 0 1-.45 1.045 1.5 1.5 0 0 1-.502.305 1.8 1.8 0 0 1-.624.106m0-.363q.246 0 .455-.08.212-.082.365-.229.157-.15.242-.35.09-.198.09-.434a1.05 1.05 0 0 0-.332-.781 1.05 1.05 0 0 0-.365-.232 1.2 1.2 0 0 0-.455-.082q-.25 0-.463.082a1.1 1.1 0 0 0-.611.577 1.1 1.1 0 0 0-.085.436q0 .236.085.435.09.2.246.35.158.146.365.227.213.081.463.081M82.917 16.64a1.8 1.8 0 0 1-.633-.11 1.44 1.44 0 0 1-.832-.769 1.4 1.4 0 0 1-.12-.578 1.4 1.4 0 0 1 .45-1.037q.213-.198.502-.309.288-.11.633-.11.339 0 .624.11.289.105.501.305.216.195.331.46.12.264.12.582a1.4 1.4 0 0 1-.451 1.045q-.213.195-.501.305a1.8 1.8 0 0 1-.624.106m0-.363q.246 0 .454-.08.213-.082.365-.229.158-.15.242-.35.09-.198.09-.434 0-.237-.09-.436a1 1 0 0 0-.242-.345 1.05 1.05 0 0 0-.365-.232 1.2 1.2 0 0 0-.454-.082q-.252 0-.463.082a1.1 1.1 0 0 0-.612.577 1.1 1.1 0 0 0-.085.436q0 .236.085.435.09.2.246.35.158.146.366.227.212.081.463.081M95.494 16.64a1.8 1.8 0 0 1-.633-.11 1.44 1.44 0 0 1-.832-.769 1.4 1.4 0 0 1-.12-.578 1.4 1.4 0 0 1 .45-1.037q.213-.198.502-.309.288-.11.632-.11.34 0 .625.11.289.105.5.305.218.195.332.46.12.264.12.582a1.4 1.4 0 0 1-.451 1.045q-.213.195-.501.305a1.8 1.8 0 0 1-.624.106m0-.363q.246 0 .454-.08a1.05 1.05 0 0 0 .607-.578q.09-.2.09-.435 0-.237-.09-.436a1 1 0 0 0-.242-.345 1.05 1.05 0 0 0-.365-.232 1.2 1.2 0 0 0-.454-.082q-.252 0-.463.082a1.1 1.1 0 0 0-.612.577 1.1 1.1 0 0 0-.085.436q0 .236.085.435.09.2.246.35.157.146.366.227.212.081.462.081M49.46 16.64q-.343 0-.633-.106a1.6 1.6 0 0 1-.501-.305 1.5 1.5 0 0 1-.33-.464q-.12-.264-.12-.582t.12-.581.334-.46q.215-.199.5-.305a1.8 1.8 0 0 1 .634-.11q.347 0 .638.114.296.111.5.33l-.277.256a1.1 1.1 0 0 0-.386-.252 1.336 1.336 0 0 0-.929-.004q-.213.081-.372.228a1.05 1.05 0 0 0-.333.785q0 .235.085.439.09.2.248.345.159.147.373.228.218.081.47.081.245 0 .458-.08.214-.087.386-.261l.278.256a1.3 1.3 0 0 1-.501.334 1.8 1.8 0 0 1-.642.114M74.676 16.64q-.343 0-.633-.106a1.6 1.6 0 0 1-.501-.305 1.5 1.5 0 0 1-.33-.464q-.12-.264-.12-.582a1.4 1.4 0 0 1 .454-1.04q.215-.2.5-.306a1.8 1.8 0 0 1 .634-.11q.347 0 .638.114.296.111.5.33l-.278.256a1.1 1.1 0 0 0-.385-.252 1.336 1.336 0 0 0-.929-.004q-.213.081-.372.228a1.05 1.05 0 0 0-.334.785q0 .235.086.439.09.2.248.345.159.147.373.228.218.081.47.081.245 0 .458-.08.214-.087.385-.261l.278.256a1.3 1.3 0 0 1-.5.334 1.8 1.8 0 0 1-.642.114"></path><path fill="currentColor" fill-rule="evenodd" d="M65.844 16.578V13.79h1.746c.288 0 .863.167.863.836 0 .536-.37.758-.665.829a1 1 0 0 1-.198.027H66.23v1.096zm.387-2.462v1.058h1.359c.162-.02.486-.156.486-.548s-.324-.503-.486-.51z" clip-rule="evenodd"></path><path fill="currentColor" d="M67.788 15.455a1 1 0 0 1-.198.027h-.238l.813 1.096h.467z"></path><path fill="currentColor" fill-rule="evenodd" d="M112.806 16.578V13.79h1.746c.288 0 .863.167.863.836 0 .536-.37.758-.665.829a1 1 0 0 1-.198.027h-1.359v1.096zm.387-2.462v1.058h1.359c.162-.02.486-.156.486-.548s-.324-.503-.486-.51z" clip-rule="evenodd"></path><path fill="currentColor" d="M114.75 15.455a1 1 0 0 1-.198.027h-.238l.813 1.096h.467zM116.515 16.578V13.79h2.421v.318h-2.054v.907h1.794v.318h-1.794v.926h2.054v.319zM98.06 16.578V13.79h2.422v.318h-2.055v.907h1.794v.318h-1.794v1.245zM104.999 13.79h-.433l.867 2.788h.372l.712-2.262.713 2.262h.372l.867-2.788h-.403l-.65 2.199-.651-2.2h-.496l-.619 2.2z"></path><path fill="currentColor" fill-rule="evenodd" d="M108.903 16.578h.371l.328-.713h1.556l.347.713h.402l-1.332-2.788h-.402l-1.332 2.788zm.842-1.023.614-1.332.648 1.332z" clip-rule="evenodd"></path><defs><clipPath id="premier-logo_svg__a"><path fill="#fff" d="M0 .429h40.879v17.143H0z"></path></clipPath></defs></svg>